<mxfile host="app.diagrams.net" modified="2023-12-07T12:25:30.318Z" agent="Mozilla/5.0 (X11; Ubuntu; Linux x86_64; rv:109.0) Gecko/20100101 Firefox/119.0" etag="ziSbmp-sG44uAT3owMkW" version="22.1.7" type="github">
  <diagram name="Page-1" id="13e1069c-82ec-6db2-03f1-153e76fe0fe0">
    <mxGraphModel dx="2338" dy="1284" grid="1" gridSize="10" guides="1" tooltips="1" connect="1" arrows="1" fold="1" page="1" pageScale="1" pageWidth="1100" pageHeight="850" background="none" math="0" shadow="0">
      <root>
        <mxCell id="0" />
        <mxCell id="1" parent="0" />
        <mxCell id="7baba1c4bc27f4b0-2" value="&lt;div&gt;Server Manager&lt;/div&gt;" style="shape=umlLifeline;perimeter=lifelinePerimeter;whiteSpace=wrap;html=1;container=1;collapsible=0;recursiveResize=0;outlineConnect=0;rounded=1;shadow=0;comic=0;labelBackgroundColor=none;strokeWidth=1;fontFamily=Verdana;fontSize=12;align=center;" parent="1" vertex="1">
          <mxGeometry x="240" y="80" width="100" height="1000" as="geometry" />
        </mxCell>
        <mxCell id="7baba1c4bc27f4b0-10" value="" style="html=1;points=[];perimeter=orthogonalPerimeter;rounded=0;shadow=0;comic=0;labelBackgroundColor=none;strokeWidth=1;fontFamily=Verdana;fontSize=12;align=center;" parent="7baba1c4bc27f4b0-2" vertex="1">
          <mxGeometry x="45" y="100" width="10" height="50" as="geometry" />
        </mxCell>
        <mxCell id="kqqrXtVJcQpzIO3YU2Qk-3" value="" style="html=1;points=[];perimeter=orthogonalPerimeter;rounded=0;shadow=0;comic=0;labelBackgroundColor=none;strokeWidth=1;fontFamily=Verdana;fontSize=12;align=center;" parent="7baba1c4bc27f4b0-2" vertex="1">
          <mxGeometry x="45" y="160" width="10" height="510" as="geometry" />
        </mxCell>
        <mxCell id="kqqrXtVJcQpzIO3YU2Qk-5" value="&lt;div&gt;Select&lt;/div&gt;&lt;div&gt;A&lt;br&gt;&lt;/div&gt;&lt;div&gt;Server &lt;br&gt;&lt;/div&gt;" style="html=1;verticalAlign=bottom;endArrow=block;entryX=0;entryY=0;labelBackgroundColor=none;fontFamily=Verdana;fontSize=12;edgeStyle=elbowEdgeStyle;elbow=vertical;" parent="7baba1c4bc27f4b0-2" edge="1">
          <mxGeometry relative="1" as="geometry">
            <mxPoint x="-85" y="206" as="sourcePoint" />
            <mxPoint x="45" y="206" as="targetPoint" />
          </mxGeometry>
        </mxCell>
        <mxCell id="7baba1c4bc27f4b0-21" value="&lt;div&gt;Return&lt;/div&gt;&lt;div&gt;Server List&lt;/div&gt;" style="html=1;verticalAlign=bottom;endArrow=open;dashed=1;endSize=8;labelBackgroundColor=none;fontFamily=Verdana;fontSize=12;edgeStyle=elbowEdgeStyle;elbow=vertical;" parent="7baba1c4bc27f4b0-2" edge="1">
          <mxGeometry relative="1" as="geometry">
            <mxPoint x="-85" y="140" as="targetPoint" />
            <Array as="points">
              <mxPoint x="-10" y="140" />
              <mxPoint x="20" y="140" />
            </Array>
            <mxPoint x="45" y="140" as="sourcePoint" />
          </mxGeometry>
        </mxCell>
        <mxCell id="g5CKuLgZh3jTE9iR29t2-1" value="" style="html=1;points=[];perimeter=orthogonalPerimeter;rounded=0;shadow=0;comic=0;labelBackgroundColor=none;strokeWidth=1;fontFamily=Verdana;fontSize=12;align=center;" vertex="1" parent="7baba1c4bc27f4b0-2">
          <mxGeometry x="50" y="220" width="10" height="430" as="geometry" />
        </mxCell>
        <mxCell id="7baba1c4bc27f4b0-3" value="&lt;div&gt;Server 1&lt;/div&gt;" style="shape=umlLifeline;perimeter=lifelinePerimeter;whiteSpace=wrap;html=1;container=1;collapsible=0;recursiveResize=0;outlineConnect=0;rounded=1;shadow=0;comic=0;labelBackgroundColor=none;strokeWidth=1;fontFamily=Verdana;fontSize=12;align=center;" parent="1" vertex="1">
          <mxGeometry x="400" y="80" width="100" height="1000" as="geometry" />
        </mxCell>
        <mxCell id="7baba1c4bc27f4b0-13" value="" style="html=1;points=[];perimeter=orthogonalPerimeter;rounded=0;shadow=0;comic=0;labelBackgroundColor=none;strokeWidth=1;fontFamily=Verdana;fontSize=12;align=center;" parent="7baba1c4bc27f4b0-3" vertex="1">
          <mxGeometry x="45" y="266" width="10" height="40" as="geometry" />
        </mxCell>
        <mxCell id="7baba1c4bc27f4b0-14" value="&lt;div&gt;Create&lt;/div&gt;&lt;div&gt;Username&lt;/div&gt;&lt;div&gt;Password&lt;/div&gt;" style="html=1;verticalAlign=bottom;endArrow=block;entryX=0;entryY=0;labelBackgroundColor=none;fontFamily=Verdana;fontSize=12;edgeStyle=elbowEdgeStyle;elbow=vertical;" parent="7baba1c4bc27f4b0-3" edge="1">
          <mxGeometry relative="1" as="geometry">
            <mxPoint x="-100" y="285" as="sourcePoint" />
            <mxPoint x="45" y="285.0000000000002" as="targetPoint" />
          </mxGeometry>
        </mxCell>
        <mxCell id="7baba1c4bc27f4b0-4" value="&lt;div&gt;Server 2&lt;/div&gt;" style="shape=umlLifeline;perimeter=lifelinePerimeter;whiteSpace=wrap;html=1;container=1;collapsible=0;recursiveResize=0;outlineConnect=0;rounded=1;shadow=0;comic=0;labelBackgroundColor=none;strokeWidth=1;fontFamily=Verdana;fontSize=12;align=center;" parent="1" vertex="1">
          <mxGeometry x="540" y="80" width="100" height="1000" as="geometry" />
        </mxCell>
        <mxCell id="7baba1c4bc27f4b0-5" value="&lt;div&gt;Server 3&lt;/div&gt;" style="shape=umlLifeline;perimeter=lifelinePerimeter;whiteSpace=wrap;html=1;container=1;collapsible=0;recursiveResize=0;outlineConnect=0;rounded=1;shadow=0;comic=0;labelBackgroundColor=none;strokeWidth=1;fontFamily=Verdana;fontSize=12;align=center;" parent="1" vertex="1">
          <mxGeometry x="680" y="80" width="100" height="1000" as="geometry" />
        </mxCell>
        <mxCell id="7baba1c4bc27f4b0-6" value="Server 4" style="shape=umlLifeline;perimeter=lifelinePerimeter;whiteSpace=wrap;html=1;container=1;collapsible=0;recursiveResize=0;outlineConnect=0;rounded=1;shadow=0;comic=0;labelBackgroundColor=none;strokeWidth=1;fontFamily=Verdana;fontSize=12;align=center;" parent="1" vertex="1">
          <mxGeometry x="820" y="80" width="100" height="1000" as="geometry" />
        </mxCell>
        <mxCell id="7baba1c4bc27f4b0-7" value="Server 5" style="shape=umlLifeline;perimeter=lifelinePerimeter;whiteSpace=wrap;html=1;container=1;collapsible=0;recursiveResize=0;outlineConnect=0;rounded=1;shadow=0;comic=0;labelBackgroundColor=none;strokeWidth=1;fontFamily=Verdana;fontSize=12;align=center;" parent="1" vertex="1">
          <mxGeometry x="960" y="80" width="100" height="1000" as="geometry" />
        </mxCell>
        <mxCell id="7baba1c4bc27f4b0-8" value="&lt;div&gt;Client&lt;/div&gt;" style="shape=umlLifeline;perimeter=lifelinePerimeter;whiteSpace=wrap;html=1;container=1;collapsible=0;recursiveResize=0;outlineConnect=0;rounded=1;shadow=0;comic=0;labelBackgroundColor=none;strokeWidth=1;fontFamily=Verdana;fontSize=12;align=center;" parent="1" vertex="1">
          <mxGeometry x="100" y="80" width="100" height="1000" as="geometry" />
        </mxCell>
        <mxCell id="7baba1c4bc27f4b0-9" value="" style="html=1;points=[];perimeter=orthogonalPerimeter;rounded=0;shadow=0;comic=0;labelBackgroundColor=none;strokeWidth=1;fontFamily=Verdana;fontSize=12;align=center;" parent="7baba1c4bc27f4b0-8" vertex="1">
          <mxGeometry x="45" y="100" width="10" height="860" as="geometry" />
        </mxCell>
        <mxCell id="7baba1c4bc27f4b0-19" value="" style="html=1;points=[];perimeter=orthogonalPerimeter;rounded=0;shadow=0;comic=0;labelBackgroundColor=none;strokeWidth=1;fontFamily=Verdana;fontSize=12;align=center;" parent="1" vertex="1">
          <mxGeometry x="725" y="506" width="10" height="40" as="geometry" />
        </mxCell>
        <mxCell id="7baba1c4bc27f4b0-23" value="Login" style="html=1;verticalAlign=bottom;endArrow=block;labelBackgroundColor=none;fontFamily=Verdana;fontSize=12;" parent="1" edge="1">
          <mxGeometry relative="1" as="geometry">
            <mxPoint x="155" y="824" as="sourcePoint" />
            <mxPoint x="440" y="824" as="targetPoint" />
          </mxGeometry>
        </mxCell>
        <mxCell id="7baba1c4bc27f4b0-25" value="" style="html=1;points=[];perimeter=orthogonalPerimeter;rounded=0;shadow=0;comic=0;labelBackgroundColor=none;strokeColor=#000000;strokeWidth=1;fillColor=#FFFFFF;fontFamily=Verdana;fontSize=12;fontColor=#000000;align=center;" parent="1" vertex="1">
          <mxGeometry x="1005" y="666" width="10" height="30" as="geometry" />
        </mxCell>
        <mxCell id="7baba1c4bc27f4b0-11" value="&lt;div&gt;Request &lt;br&gt;&lt;/div&gt;&lt;div&gt;Server List&lt;/div&gt;" style="html=1;verticalAlign=bottom;endArrow=block;entryX=0;entryY=0;labelBackgroundColor=none;fontFamily=Verdana;fontSize=12;edgeStyle=elbowEdgeStyle;elbow=vertical;" parent="1" source="7baba1c4bc27f4b0-9" target="7baba1c4bc27f4b0-10" edge="1">
          <mxGeometry relative="1" as="geometry">
            <mxPoint x="220" y="190" as="sourcePoint" />
          </mxGeometry>
        </mxCell>
        <mxCell id="kqqrXtVJcQpzIO3YU2Qk-8" value="Vip User" style="shape=umlFrame;whiteSpace=wrap;html=1;pointerEvents=0;" parent="1" vertex="1">
          <mxGeometry x="40" y="40" width="1190" height="1050" as="geometry" />
        </mxCell>
        <mxCell id="kqqrXtVJcQpzIO3YU2Qk-10" value="return" style="html=1;verticalAlign=bottom;endArrow=open;dashed=1;endSize=8;labelBackgroundColor=none;fontFamily=Verdana;fontSize=12;edgeStyle=elbowEdgeStyle;elbow=vertical;" parent="1" edge="1">
          <mxGeometry relative="1" as="geometry">
            <mxPoint x="155" y="867.5" as="targetPoint" />
            <Array as="points">
              <mxPoint x="570" y="867.5" />
            </Array>
            <mxPoint x="440" y="868" as="sourcePoint" />
          </mxGeometry>
        </mxCell>
        <mxCell id="kqqrXtVJcQpzIO3YU2Qk-11" value="Send " style="html=1;verticalAlign=bottom;endArrow=block;labelBackgroundColor=none;fontFamily=Verdana;fontSize=12;edgeStyle=elbowEdgeStyle;elbow=vertical;" parent="1" edge="1" target="7baba1c4bc27f4b0-3">
          <mxGeometry relative="1" as="geometry">
            <mxPoint x="155" y="918" as="sourcePoint" />
            <mxPoint x="425" y="918" as="targetPoint" />
          </mxGeometry>
        </mxCell>
        <mxCell id="kqqrXtVJcQpzIO3YU2Qk-12" value="&lt;div&gt;Receive&lt;/div&gt;" style="html=1;verticalAlign=bottom;endArrow=open;dashed=1;endSize=8;labelBackgroundColor=none;fontFamily=Verdana;fontSize=12;edgeStyle=elbowEdgeStyle;elbow=vertical;exitX=-0.1;exitY=0.833;exitDx=0;exitDy=0;exitPerimeter=0;" parent="1" edge="1">
          <mxGeometry relative="1" as="geometry">
            <mxPoint x="160" y="968" as="targetPoint" />
            <Array as="points">
              <mxPoint x="580" y="968" />
            </Array>
            <mxPoint x="444" y="967.9300000000001" as="sourcePoint" />
          </mxGeometry>
        </mxCell>
        <mxCell id="g5CKuLgZh3jTE9iR29t2-2" value="&lt;div&gt;Check&lt;/div&gt;&lt;div&gt;VIP&lt;/div&gt;" style="html=1;verticalAlign=bottom;endArrow=block;labelBackgroundColor=none;fontFamily=Verdana;fontSize=12;elbow=vertical;edgeStyle=orthogonalEdgeStyle;curved=1;exitX=1;exitY=0.02;exitDx=0;exitDy=0;exitPerimeter=0;" edge="1" parent="1">
          <mxGeometry x="-0.1892" y="5" relative="1" as="geometry">
            <mxPoint x="295" y="290.00000000000006" as="sourcePoint" />
            <mxPoint x="300" y="327.8" as="targetPoint" />
            <Array as="points">
              <mxPoint x="355" y="289.8" />
              <mxPoint x="355" y="327.8" />
            </Array>
            <mxPoint as="offset" />
          </mxGeometry>
        </mxCell>
        <mxCell id="g5CKuLgZh3jTE9iR29t2-3" value="" style="html=1;points=[];perimeter=orthogonalPerimeter;rounded=0;shadow=0;comic=0;labelBackgroundColor=none;strokeWidth=1;fontFamily=Verdana;fontSize=12;align=center;" vertex="1" parent="1">
          <mxGeometry x="865" y="586" width="10" height="40" as="geometry" />
        </mxCell>
        <mxCell id="g5CKuLgZh3jTE9iR29t2-4" value="" style="html=1;points=[];perimeter=orthogonalPerimeter;rounded=0;shadow=0;comic=0;labelBackgroundColor=none;strokeWidth=1;fontFamily=Verdana;fontSize=12;align=center;" vertex="1" parent="1">
          <mxGeometry x="585" y="426" width="10" height="40" as="geometry" />
        </mxCell>
        <mxCell id="g5CKuLgZh3jTE9iR29t2-6" value="&lt;div&gt;Create&lt;/div&gt;&lt;div&gt;Username&lt;/div&gt;&lt;div&gt;Password&lt;/div&gt;" style="html=1;verticalAlign=bottom;endArrow=block;labelBackgroundColor=none;fontFamily=Verdana;fontSize=12;edgeStyle=elbowEdgeStyle;elbow=vertical;" edge="1" parent="1">
          <mxGeometry relative="1" as="geometry">
            <mxPoint x="300" y="446.5" as="sourcePoint" />
            <mxPoint x="585" y="447" as="targetPoint" />
            <Array as="points">
              <mxPoint x="275" y="447" />
            </Array>
          </mxGeometry>
        </mxCell>
        <mxCell id="g5CKuLgZh3jTE9iR29t2-7" value="&lt;div&gt;Create&lt;/div&gt;&lt;div&gt;Username&lt;/div&gt;&lt;div&gt;Password&lt;/div&gt;" style="html=1;verticalAlign=bottom;endArrow=block;labelBackgroundColor=none;fontFamily=Verdana;fontSize=12;edgeStyle=elbowEdgeStyle;elbow=vertical;entryX=-0.1;entryY=0.5;entryDx=0;entryDy=0;entryPerimeter=0;" edge="1" parent="1">
          <mxGeometry relative="1" as="geometry">
            <mxPoint x="300" y="681.5" as="sourcePoint" />
            <mxPoint x="1004" y="682" as="targetPoint" />
            <Array as="points">
              <mxPoint x="275" y="682" />
            </Array>
          </mxGeometry>
        </mxCell>
        <mxCell id="g5CKuLgZh3jTE9iR29t2-8" value="&lt;div&gt;Create&lt;/div&gt;&lt;div&gt;Username&lt;/div&gt;&lt;div&gt;Password&lt;/div&gt;" style="html=1;verticalAlign=bottom;endArrow=block;labelBackgroundColor=none;fontFamily=Verdana;fontSize=12;edgeStyle=elbowEdgeStyle;elbow=vertical;" edge="1" parent="1">
          <mxGeometry relative="1" as="geometry">
            <mxPoint x="300" y="606.5" as="sourcePoint" />
            <mxPoint x="860" y="607" as="targetPoint" />
            <Array as="points">
              <mxPoint x="275" y="607" />
            </Array>
          </mxGeometry>
        </mxCell>
        <mxCell id="g5CKuLgZh3jTE9iR29t2-9" value="&lt;div&gt;Create&lt;/div&gt;&lt;div&gt;Username&lt;/div&gt;&lt;div&gt;Password&lt;/div&gt;" style="html=1;verticalAlign=bottom;endArrow=block;labelBackgroundColor=none;fontFamily=Verdana;fontSize=12;edgeStyle=elbowEdgeStyle;elbow=vertical;entryX=-0.5;entryY=0.5;entryDx=0;entryDy=0;entryPerimeter=0;" edge="1" parent="1">
          <mxGeometry relative="1" as="geometry">
            <mxPoint x="300" y="526.5" as="sourcePoint" />
            <mxPoint x="720" y="527" as="targetPoint" />
            <Array as="points">
              <mxPoint x="275" y="527" />
            </Array>
          </mxGeometry>
        </mxCell>
        <mxCell id="kqqrXtVJcQpzIO3YU2Qk-6" value="&lt;div&gt;Return&lt;/div&gt;&lt;div&gt;Server host&lt;br&gt;&lt;/div&gt;&lt;div&gt;Username&lt;/div&gt;&lt;div&gt;Password&lt;/div&gt;" style="html=1;verticalAlign=bottom;endArrow=open;dashed=1;endSize=8;labelBackgroundColor=none;fontFamily=Verdana;fontSize=12;edgeStyle=elbowEdgeStyle;elbow=vertical;" parent="1" edge="1">
          <mxGeometry relative="1" as="geometry">
            <mxPoint x="160" y="510" as="targetPoint" />
            <Array as="points">
              <mxPoint x="254.5" y="510" />
              <mxPoint x="284.5" y="510" />
            </Array>
            <mxPoint x="280" y="510" as="sourcePoint" />
          </mxGeometry>
        </mxCell>
        <mxCell id="g5CKuLgZh3jTE9iR29t2-11" value="return" style="html=1;verticalAlign=bottom;endArrow=open;dashed=1;endSize=8;labelBackgroundColor=none;fontFamily=Verdana;fontSize=12;edgeStyle=elbowEdgeStyle;elbow=vertical;" edge="1" parent="1">
          <mxGeometry relative="1" as="geometry">
            <mxPoint x="300" y="465" as="targetPoint" />
            <Array as="points">
              <mxPoint x="715" y="465" />
            </Array>
            <mxPoint x="585" y="465.5" as="sourcePoint" />
          </mxGeometry>
        </mxCell>
        <mxCell id="g5CKuLgZh3jTE9iR29t2-12" value="return" style="html=1;verticalAlign=bottom;endArrow=open;dashed=1;endSize=8;labelBackgroundColor=none;fontFamily=Verdana;fontSize=12;edgeStyle=elbowEdgeStyle;elbow=vertical;exitX=0.293;exitY=0.964;exitDx=0;exitDy=0;exitPerimeter=0;" edge="1" parent="1" source="7baba1c4bc27f4b0-19">
          <mxGeometry relative="1" as="geometry">
            <mxPoint x="300" y="546" as="targetPoint" />
            <Array as="points">
              <mxPoint x="715" y="546" />
            </Array>
            <mxPoint x="585" y="546.5" as="sourcePoint" />
          </mxGeometry>
        </mxCell>
        <mxCell id="g5CKuLgZh3jTE9iR29t2-13" value="return" style="html=1;verticalAlign=bottom;endArrow=open;dashed=1;endSize=8;labelBackgroundColor=none;fontFamily=Verdana;fontSize=12;edgeStyle=elbowEdgeStyle;elbow=vertical;exitX=0.293;exitY=0.964;exitDx=0;exitDy=0;exitPerimeter=0;entryX=0.911;entryY=0.759;entryDx=0;entryDy=0;entryPerimeter=0;" edge="1" parent="1" target="g5CKuLgZh3jTE9iR29t2-1">
          <mxGeometry relative="1" as="geometry">
            <mxPoint x="330" y="627" as="targetPoint" />
            <Array as="points">
              <mxPoint x="1005" y="627" />
            </Array>
            <mxPoint x="865" y="626" as="sourcePoint" />
          </mxGeometry>
        </mxCell>
        <mxCell id="g5CKuLgZh3jTE9iR29t2-14" value="return" style="html=1;verticalAlign=bottom;endArrow=open;dashed=1;endSize=8;labelBackgroundColor=none;fontFamily=Verdana;fontSize=12;edgeStyle=elbowEdgeStyle;elbow=vertical;exitX=0.293;exitY=0.964;exitDx=0;exitDy=0;exitPerimeter=0;entryX=1;entryY=0.921;entryDx=0;entryDy=0;entryPerimeter=0;" edge="1" parent="1" target="g5CKuLgZh3jTE9iR29t2-1">
          <mxGeometry relative="1" as="geometry">
            <mxPoint x="310" y="697" as="targetPoint" />
            <Array as="points">
              <mxPoint x="1150.5" y="697" />
            </Array>
            <mxPoint x="1010.5" y="696" as="sourcePoint" />
          </mxGeometry>
        </mxCell>
      </root>
    </mxGraphModel>
  </diagram>
</mxfile>
